<svg width="257" height="256" viewBox="0 0 257 256" fill="none" xmlns="http://www.w3.org/2000/svg">
<path d="M250.121 111.57C250.192 110.081 247.628 109.355 247.744 108.052C247.86 106.754 250.447 107.024 253.182 104.679C253.675 104.256 256.782 101.592 256.479 99.5931C255.905 95.804 243.583 97.738 242.383 92.2258C242.12 91.0161 242.365 89.3192 241.639 85.5172C241.35 84.0046 241.111 83.2196 240.621 82.9719C239.926 82.6203 239.336 83.6576 237.63 85.19C235.073 87.4882 234.606 86.7695 232.77 88.7945C231.408 90.2978 230.95 91.4834 230.357 91.2444C229.518 90.9063 229.893 88.3138 228.932 87.6811C227.951 87.0354 226.241 88.8661 225.194 90.4537C223.227 93.433 223.024 96.4188 222.37 99.1488C221.66 102.115 220.086 106.167 216.182 110.339L180.544 145.665C188.046 138.593 209.026 119.593 217.2 112.884C219.56 110.948 222.038 109.063 224.743 109.93C227.348 110.765 229.85 114.05 234.049 116.229C234.54 116.484 235.912 117.169 236.529 116.37C237.04 115.71 236.57 114.637 237.04 114.011C237.67 113.171 239.028 114.42 241.252 114.847C242.821 115.149 244.023 114.889 245.057 114.665C245.369 114.598 250.026 113.551 250.121 111.57Z" fill="#F2F2F2"/>
<path d="M189.905 91.5044C189.389 91.0271 188.387 92.5315 187.951 92.0777C187.517 91.6256 188.36 89.9747 188.304 87.4706C188.294 87.0191 188.231 84.1734 187.423 83.7991C185.891 83.0897 183.033 91.8831 180.7 91.0942C180.188 90.9211 179.647 90.268 178.067 89.6561C177.439 89.4126 177.087 89.3464 176.856 89.6021C176.529 89.9649 176.732 90.6591 176.793 92.2409C176.883 94.6131 176.489 94.7181 176.69 96.5289C176.839 97.8731 177.134 98.5212 176.876 98.8486C176.512 99.3119 175.686 98.3134 175.181 98.773C174.665 99.2421 174.832 100.913 175.102 102.071C175.608 104.245 176.626 105.243 177.421 106.467C178.285 107.798 179.291 110.019 179.669 113.832L182.118 147.843C181.734 140.788 180.939 121.285 180.88 113.886C180.863 111.75 180.898 109.55 181.992 107.992C183.044 106.492 184.95 105.768 186.947 103.59C187.18 103.336 187.823 102.616 187.713 101.973C187.623 101.441 187.101 101.446 187.01 100.951C186.89 100.288 187.731 99.7405 188.527 98.3771C189.089 97.4157 189.342 96.5371 189.56 95.7815C189.625 95.5537 190.592 92.1396 189.905 91.5044Z" fill="#F2F2F2"/>
<path d="M198.592 104.216L200.178 100.159L200.463 100.005C201.783 99.2952 202.766 98.3167 203.386 97.0958C203.484 96.9017 203.576 96.7007 203.669 96.4962C204.037 95.6852 204.495 94.6769 205.442 93.8867C205.972 93.4474 207.3 92.5267 208.095 93.5349C208.311 93.8029 208.416 94.1203 208.465 94.4228C208.507 94.3978 208.55 94.3734 208.596 94.3467C209.16 94.0308 209.502 93.989 209.831 93.9487C210.084 93.9175 210.346 93.8859 210.831 93.6862C211.044 93.5987 211.219 93.5111 211.367 93.4378C211.815 93.2166 212.375 92.9772 212.899 93.4786C213.444 94.0409 213.42 94.9514 213.404 95.5543C213.377 96.6299 213.263 97.318 213.188 97.7743C213.16 97.9409 213.129 98.1287 213.129 98.1948C213.127 98.7282 214.776 99.7657 215.394 100.161C216.787 101.043 217.993 101.806 217.898 103.296C217.831 104.361 217.084 105.155 215.613 105.717C215.156 105.892 214.731 105.953 214.371 105.975C214.487 106.319 214.54 106.729 214.418 107.181C214.126 108.252 213.089 108.629 211.334 108.308C210.898 108.229 210.311 108.121 209.628 107.694C209.306 107.493 209.038 107.268 208.812 107.07C208.719 107.24 208.594 107.401 208.418 107.523C207.901 107.883 207.286 107.711 206.6 106.975C205.837 106.181 205.289 105.367 204.805 104.651C204.382 104.027 204.017 103.491 203.662 103.205C202.998 102.687 202.168 102.921 201.151 103.28L198.592 104.216Z" fill="#F2F2F2"/>
<path d="M211.316 83.1199L208.031 82.0608L207.85 81.7239C207.011 80.1654 206.066 79.1188 205.042 78.6119C204.879 78.5313 204.713 78.4621 204.544 78.3914C203.875 78.1115 203.042 77.7639 202.241 76.7168C201.794 76.1312 200.803 74.6144 201.318 73.3123C201.453 72.9603 201.652 72.7409 201.855 72.5996C201.826 72.5506 201.798 72.5005 201.767 72.4469C201.4 71.7838 201.284 71.3439 201.171 70.9202C201.085 70.5946 200.996 70.2584 200.731 69.6699C200.615 69.4118 200.508 69.2027 200.419 69.0266C200.148 68.4928 199.836 67.8156 200.059 66.9992C200.32 66.1379 200.973 65.9387 201.406 65.8064C202.177 65.57 202.694 65.5449 203.037 65.5285C203.163 65.5229 203.304 65.5156 203.351 65.5C203.73 65.3664 204.049 62.932 204.173 62.0166C204.446 59.9582 204.683 58.1771 205.765 57.9236C206.539 57.7413 207.293 58.525 208.064 60.319C208.304 60.8778 208.456 61.4213 208.563 61.8906C208.777 61.6498 209.055 61.4762 209.408 61.5228C210.242 61.6347 210.773 62.9048 210.99 65.2983C211.045 65.8933 211.117 66.6932 210.987 67.7019C210.926 68.1769 210.834 68.5863 210.751 68.9347C210.895 69.0134 211.041 69.1375 211.173 69.3386C211.559 69.929 211.593 70.7818 211.244 71.8721C210.873 73.0782 210.435 74.0063 210.049 74.8254C209.712 75.5411 209.424 76.1584 209.312 76.6985C209.112 77.7046 209.489 78.7388 210.002 79.9871L211.316 83.1199Z" fill="#F2F2F2"/>
<path d="M215.462 70.6764L217.047 66.6188L217.332 66.4652C218.652 65.7554 219.635 64.7769 220.255 63.556C220.354 63.3619 220.445 63.161 220.538 62.9564C220.907 62.1454 221.365 61.1371 222.312 60.3469C222.841 59.9076 224.17 58.9869 224.964 59.9951C225.18 60.2631 225.285 60.5805 225.335 60.883C225.377 60.858 225.419 60.8336 225.465 60.8069C226.029 60.491 226.371 60.4492 226.701 60.4089C226.954 60.3777 227.215 60.3461 227.701 60.1464C227.913 60.0589 228.089 59.9713 228.237 59.898C228.685 59.6768 229.245 59.4374 229.768 59.9388C230.314 60.5011 230.29 61.4116 230.274 62.0145C230.246 63.0901 230.133 63.7782 230.057 64.2345C230.03 64.4011 229.999 64.5889 229.998 64.655C229.997 65.1884 231.645 66.2259 232.264 66.6212C233.657 67.5033 234.862 68.2665 234.768 69.7557C234.701 70.8215 233.953 71.6156 232.483 72.1773C232.025 72.3518 231.601 72.413 231.24 72.435C231.357 72.779 231.41 73.1891 231.287 73.6416C230.996 74.7121 229.959 75.0896 228.204 74.7679C227.767 74.6895 227.181 74.581 226.497 74.1546C226.175 73.9533 225.908 73.7279 225.681 73.5302C225.589 73.7005 225.464 73.8617 225.288 73.9835C224.77 74.3429 224.156 74.171 223.47 73.4349C222.707 72.6407 222.159 71.8275 221.675 71.1115C221.252 70.487 220.886 69.951 220.531 69.6654C219.867 69.1475 219.037 69.3811 218.02 69.74L215.462 70.6764Z" fill="#F2F2F2"/>
<path d="M181.501 146.467L181.17 145.432L180.441 144.906C180.473 144.811 180.535 144.58 180.634 144.221C181.179 142.254 182.836 136.265 186.128 127.472C188.426 121.334 191.037 115.254 193.889 109.4C196.746 103.537 199.158 99.3307 201.096 95.9496C202.558 93.3997 203.982 91.0014 205.371 88.6661C209.079 82.4259 212.581 76.5308 215.781 69.3734C216.496 67.7761 217.984 64.4502 218.324 59.7529C218.522 57.0285 218.306 54.245 217.682 51.4815L219.268 50.8173C219.956 53.87 220.193 56.9518 219.975 59.9768C219.597 65.185 217.976 68.8089 217.198 70.5501C213.941 77.8338 210.404 83.7852 206.66 90.0854C205.278 92.4128 203.859 94.8001 202.403 97.3398C200.483 100.689 198.092 104.859 195.272 110.647C192.453 116.431 189.875 122.436 187.605 128.497C184.355 137.18 182.723 143.079 182.187 145.017C181.901 146.052 181.841 146.268 181.501 146.467Z" fill="#F2F2F2"/>
<path d="M213.683 52.1015C213.627 52.0491 213.571 51.9943 213.516 51.9353C212.394 50.763 211.793 48.8068 211.728 46.1213C211.699 44.8594 211.95 43.6848 212.451 41.3424C212.528 40.9809 212.933 39.1611 213.757 36.9062C214.295 35.4324 214.595 34.8864 215.041 34.5722C215.536 34.2216 216.082 34.1636 216.608 34.2723C216.68 34.0777 216.787 33.907 216.938 33.7726C217.562 33.2131 218.131 33.8932 218.441 34.2552C218.596 34.4426 218.789 34.6783 219.026 34.8751C219.397 35.1867 219.664 35.2212 220.066 35.2757C220.451 35.3276 220.93 35.392 221.519 35.73C222.683 36.3903 223.338 37.5791 223.555 37.9706C224.697 40.0223 224.638 42.2695 224.57 44.8714C224.556 45.3923 224.467 47.2561 223.936 49.4279C223.552 50.9948 223.22 51.5409 222.92 51.8967C222.304 52.6295 221.65 52.7682 220.075 52.9512C218.428 53.1452 217.602 53.2413 216.968 53.176C215.492 53.0211 214.565 52.924 213.683 52.1015Z" fill="#F2F2F2"/>
<path d="M207.145 0H114.169C110.758 0 107.984 3.7766 107.984 8.42099V139.013C107.984 143.657 110.758 147.434 114.169 147.434H207.145C210.555 147.434 213.329 143.657 213.329 139.013V8.42099C213.329 3.7766 210.555 0 207.145 0ZM212.678 139.013C212.678 143.175 210.201 146.548 207.145 146.548H114.169C111.112 146.548 108.635 143.175 108.635 139.013V8.42099C108.635 4.25925 111.112 0.885489 114.168 0.885489H163.418C190.624 0.885489 212.678 30.9179 212.678 67.9648V139.013Z" fill="#3F3D56"/>
<path d="M106.017 98.1498C102.758 99.3492 100.571 102.611 101.132 105.435C101.693 108.259 104.789 109.575 108.048 108.375C109.355 107.919 110.563 107.045 111.571 105.823L125.332 100.504L123.361 91.7642L110.005 97.9361C108.682 97.5726 107.314 97.6458 106.017 98.1498Z" fill="#FFB6B6"/>
<path d="M163.68 71.929C163.68 71.929 167.565 79.6894 158.81 85.5436C150.054 91.3979 133.87 99.7532 133.87 99.7532L111.523 106.803L108.148 96.7285L134.665 86.8906L156.272 70.4702L163.68 71.929Z" fill="#3F3D56"/>
<path d="M161.081 51.2731C160.982 54.9517 162.926 59.3184 164.983 59.4081C167.456 59.516 179.15 60.6501 179.526 59.3294C182.136 50.1596 169.844 31.1381 167.073 30.5893C165.584 30.2944 163.801 33.2056 163.116 35.6088C162.155 38.9766 163.573 40.5648 162.773 45.1019C162.162 48.5617 161.151 48.7014 161.081 51.2731Z" fill="#2F2E41"/>
<path d="M140.726 196.286L132.519 198.848L140.766 232.169L146.327 230.434L140.726 196.286Z" fill="#FFB6B6"/>
<path d="M137.794 221.777L140.968 222.411L141.457 224.727C141.457 224.727 141.563 221.781 145.069 219.763L145.98 221.835C145.98 221.835 147.857 223.48 148.463 227.556L149.81 238.581L147.054 239.576L145.032 232.333C145.032 232.333 143.919 230.948 142.149 240.318C142.149 240.318 141.432 243.468 134.93 243.103C134.036 243.053 133.249 242.241 133.011 241.067C132.879 240.419 132.937 239.749 133.486 239.3C134.883 238.158 136.508 238.265 137.135 236.234C137.762 234.204 137.794 221.777 137.794 221.777Z" fill="#2F2E41"/>
<path d="M158.557 211.436L151.228 211.189L152.254 246.276L157.958 246.415L158.557 211.436Z" fill="#FFB6B6"/>
<path d="M151.205 235.216L154.174 236.872L154.24 239.28C154.24 239.28 154.863 236.456 158.623 235.645L159.141 237.956C159.141 237.956 160.672 240.167 160.54 244.322L159.899 255.464L157.048 255.527L156.365 247.834C156.365 247.834 155.53 246.125 152.156 254.64C152.156 254.64 150.903 257.461 144.657 254.977C143.798 254.635 143.178 253.589 143.154 252.372C143.141 251.7 143.316 251.069 143.928 250.813C145.486 250.162 147.044 250.798 148.011 249.033C148.978 247.267 151.205 235.216 151.205 235.216Z" fill="#2F2E41"/>
<path d="M173.68 173.112L134.919 169.027L145.827 108.136L171.924 103.016L173.68 173.112Z" fill="#2F2E41"/>
<path d="M168.334 61.1841L176.501 55.2594L183.096 65.8629L169.844 123.703L145.602 109.086L164.014 66.2218L168.334 61.1841Z" fill="#3B82F6"/>
<path d="M169.369 113.26C169.369 113.26 171.97 131.52 163.917 141.011L161.452 151.683L158.79 171.381L159.031 222.258L149.277 220.93L145.375 172.229L145.329 147.992L130.929 164.784L145.999 205.091L133.719 212.413L118.721 163.84C117.679 160.881 117.957 157.374 119.439 154.786L145.602 109.086L169.369 113.26Z" fill="#2F2E41"/>
<path d="M179.48 60.0498L163.468 80.392C159.678 122.266 161.747 160.717 172.651 194.005L199.558 177.023C177.371 167.859 179.547 117.543 183.852 63.6305L179.48 60.0498Z" fill="#3F3D56"/>
<path d="M165.671 66.2887L168.135 61.0988L154.511 72.0057L143.738 112.659L163.611 78.8882L165.671 66.2887Z" fill="#3F3D56"/>
<path d="M199.751 142.757C200.69 147.172 203.124 150.091 205.187 149.277C207.251 148.463 208.162 144.224 207.222 139.808C206.865 138.036 206.201 136.407 205.286 135.057L201.134 116.417L194.752 119.257L199.523 137.331C199.279 139.138 199.358 140.999 199.751 142.757Z" fill="#FFB6B6"/>
<path d="M178.859 64.0646C178.859 64.0646 184.444 58.5535 188.992 70.303C193.541 82.0525 200.14 103.842 200.14 103.842L205.957 134.057L198.659 138.94L190.675 103.13L178.001 74.1902L178.859 64.0646Z" fill="#3F3D56"/>
<path d="M172.217 54.7825C177.227 54.7825 181.287 49.2529 181.287 42.4318C181.287 35.6108 177.227 30.0812 172.217 30.0812C167.208 30.0812 163.147 35.6108 163.147 42.4318C163.147 49.2529 167.208 54.7825 172.217 54.7825Z" fill="#FFB6B6"/>
<path d="M172.247 37.6133C171.737 37.5448 171.474 38.2799 169.525 39.3055C168.834 39.6689 168.48 39.8513 168.074 39.8868C166.841 39.9947 165.883 39.0671 165.242 38.4472C164.201 37.4395 163.53 36.7904 163.399 35.7527C163.228 34.3986 164.354 32.8858 166.612 29.9156C167.718 28.4611 168.392 27.5824 169.475 26.5367C171.29 24.7827 172.198 23.9057 173.47 23.7336C175.155 23.5057 176.437 24.6008 178.285 26.1809C178.785 26.6078 179.505 26.8131 180.268 26.8913C182.767 27.1474 184.91 29.4156 185.589 32.7003C185.641 32.9512 185.685 33.1784 185.718 33.3729C187.059 41.3484 186.685 49.6437 184.849 57.4345C184.799 57.6442 184.758 57.8395 184.726 58.0174C183.873 62.762 172.158 64.6115 170.787 60.6005C169.924 58.0747 173.957 55.5475 174.559 48.0164C174.978 42.7734 173.521 37.7843 172.247 37.6133Z" fill="#2F2E41"/>
<path d="M136.922 40.4019H38.6483V41.0878H136.922V40.4019Z" fill="#E6E6E6"/>
<path d="M123.048 30.3724H52.522C51.411 30.3724 50.507 29.1415 50.507 27.6285C50.507 26.1156 51.411 24.8846 52.522 24.8846H123.048C124.159 24.8846 125.063 26.1156 125.063 27.6285C125.063 29.1415 124.159 30.3724 123.048 30.3724Z" fill="#E6E6E6"/>
<path d="M38.8662 45.8608C41.2005 45.8608 43.0929 43.2839 43.0929 40.1052C43.0929 36.9264 41.2005 34.3495 38.8662 34.3495C36.5318 34.3495 34.6394 36.9264 34.6394 40.1052C34.6394 43.2839 36.5318 45.8608 38.8662 45.8608Z" fill="#E6E6E6"/>
<path d="M51.8716 33.464C54.206 33.464 56.0984 30.8871 56.0984 27.7083C56.0984 24.5295 54.206 21.9526 51.8716 21.9526C49.5372 21.9526 47.6448 24.5295 47.6448 27.7083C47.6448 30.8871 49.5372 33.464 51.8716 33.464Z" fill="#E6E6E6"/>
<path d="M103.758 104.6H5.48438V105.286H103.758V104.6Z" fill="#3F3D56"/>
<path d="M89.8839 94.5704H19.3581C18.247 94.5704 17.3431 93.3394 17.3431 91.8265C17.3431 90.3135 18.247 89.0826 19.3581 89.0826H89.8839C90.995 89.0826 91.899 90.3135 91.899 91.8265C91.899 93.3394 90.995 94.5704 89.8839 94.5704Z" fill="#3B82F6"/>
<path d="M4.72678 110.059C7.06116 110.059 8.95356 107.482 8.95356 104.303C8.95356 101.124 7.06116 98.5474 4.72678 98.5474C2.39239 98.5474 0.5 101.124 0.5 104.303C0.5 107.482 2.39239 110.059 4.72678 110.059Z" fill="#3B82F6"/>
<path d="M17.7322 97.6619C20.0666 97.6619 21.959 95.085 21.959 91.9063C21.959 88.7275 20.0666 86.1506 17.7322 86.1506C15.3979 86.1506 13.5055 88.7275 13.5055 91.9063C13.5055 95.085 15.3979 97.6619 17.7322 97.6619Z" fill="#3B82F6"/>
<path d="M115.463 175.439H17.1893V176.125H115.463V175.439Z" fill="#E6E6E6"/>
<path d="M101.589 165.41H31.063C29.9519 165.41 29.048 164.179 29.048 162.666C29.048 161.153 29.9519 159.922 31.063 159.922H101.589C102.7 159.922 103.604 161.153 103.604 162.666C103.604 164.179 102.7 165.41 101.589 165.41Z" fill="#E6E6E6"/>
<path d="M29.112 168.058C31.4464 168.058 33.3388 165.481 33.3388 162.303C33.3388 159.124 31.4464 156.547 29.112 156.547C26.7776 156.547 24.8853 159.124 24.8853 162.303C24.8853 165.481 26.7776 168.058 29.112 168.058Z" fill="#E6E6E6"/>
<path d="M16.4317 181.341C18.7661 181.341 20.6585 178.764 20.6585 175.585C20.6585 172.406 18.7661 169.829 16.4317 169.829C14.0973 169.829 12.2049 172.406 12.2049 175.585C12.2049 178.764 14.0973 181.341 16.4317 181.341Z" fill="#E6E6E6"/>
</svg>
