<svg width="257" height="256" viewBox="0 0 257 256" fill="none" xmlns="http://www.w3.org/2000/svg">
<path d="M57.9168 42.7523L55.9651 52.8691L65.6955 55.5775L64.4865 44.7767L57.9168 42.7523Z" fill="#A0616A"/>
<path d="M0.5 252.169C0.5 252.487 0.758615 252.742 1.08066 252.742H255.919C256.241 252.742 256.5 252.487 256.5 252.169C256.5 251.851 256.241 251.596 255.919 251.596H1.08066C0.758615 251.596 0.5 251.851 0.5 252.169Z" fill="#3F3D56"/>
<path d="M174.22 114.805H73.8688C62.4889 114.805 53.2637 123.913 53.2637 135.149V231.226C53.2637 242.462 62.4889 251.57 73.8688 251.57H174.22C185.6 251.57 194.825 242.462 194.825 231.226V135.149C194.825 123.913 185.6 114.805 174.22 114.805Z" fill="white"/>
<path d="M174.22 252.052H73.8688C62.2382 252.052 52.7758 242.709 52.7758 231.226V135.149C52.7758 123.666 62.2382 114.323 73.8688 114.323H174.22C185.851 114.323 195.313 123.666 195.313 135.149V231.226C195.313 242.709 185.851 252.052 174.22 252.052ZM73.8688 115.287C62.7761 115.287 53.7517 124.197 53.7517 135.149V231.226C53.7517 242.178 62.7762 251.088 73.8688 251.088H174.22C185.313 251.088 194.337 242.178 194.337 231.226V135.149C194.337 124.197 185.313 115.287 174.22 115.287L73.8688 115.287Z" fill="#3F3D56"/>
<path d="M181.489 156.458H141.153C139.442 156.458 138.05 155.083 138.05 153.394C138.05 151.705 139.442 150.331 141.153 150.331H181.489C183.2 150.331 184.592 151.705 184.592 153.394C184.592 155.083 183.2 156.458 181.489 156.458Z" fill="#3B82F6"/>
<path d="M143.649 180.549H104.44C103.452 180.549 102.648 179.755 102.648 178.779C102.648 177.803 103.452 177.009 104.44 177.009H143.649C144.637 177.009 145.441 177.803 145.441 178.779C145.441 179.755 144.637 180.549 143.649 180.549Z" fill="#3B82F6"/>
<path d="M88.2317 121.385H65.8468C65.7632 121.385 65.6955 121.452 65.6955 121.534V124.107C65.6955 124.19 65.7632 124.257 65.8468 124.257H88.2317C88.3153 124.257 88.3831 124.19 88.3831 124.107V121.534C88.3831 121.452 88.3153 121.385 88.2317 121.385Z" fill="#3B82F6"/>
<path d="M163.631 124.257C164.916 124.257 165.958 123.228 165.958 121.959C165.958 120.69 164.916 119.662 163.631 119.662C162.346 119.662 161.304 120.69 161.304 121.959C161.304 123.228 162.346 124.257 163.631 124.257Z" fill="#3F3D56"/>
<path d="M170.03 124.257C171.315 124.257 172.357 123.228 172.357 121.959C172.357 120.69 171.315 119.662 170.03 119.662C168.745 119.662 167.703 120.69 167.703 121.959C167.703 123.228 168.745 124.257 170.03 124.257Z" fill="#3F3D56"/>
<path d="M176.429 124.257C177.715 124.257 178.756 123.228 178.756 121.959C178.756 120.69 177.715 119.662 176.429 119.662C175.144 119.662 174.102 120.69 174.102 121.959C174.102 123.228 175.144 124.257 176.429 124.257Z" fill="#3F3D56"/>
<path d="M73.6246 190.023C73.6246 190.341 73.8832 190.597 74.2052 190.597H173.884C174.206 190.597 174.464 190.341 174.464 190.023C174.464 189.705 174.206 189.45 173.884 189.45H74.2052C73.8832 189.45 73.6246 189.705 73.6246 190.023Z" fill="#3F3D56"/>
<path d="M104.025 48.6167C106.147 46.8854 108.772 46.5632 109.887 47.8968C111.003 49.2303 110.187 51.7144 108.064 53.446C107.225 54.1491 106.229 54.6438 105.157 54.8887L96.0717 62.1119L92.7294 57.8303L102.041 51.164C102.486 50.1706 103.167 49.2971 104.025 48.6167Z" fill="#A0616A"/>
<path d="M51.5139 64.9143C51.5093 64.5949 51.5123 61.8084 53.6017 60.0472C56.0017 58.0241 59.3884 58.843 60.5762 59.1302C63.3201 59.7936 63.5451 60.9558 66.122 62.1499C70.9429 64.384 64.9024 63.2405 67.7711 62.5241C68.764 62.2762 83.0491 61.298 86.6049 59.1372C93.5205 54.9346 98.2326 52.3862 98.2326 52.3862L101.313 58.4689C101.313 58.4689 96.8587 64.5841 90.5898 69.1142C84.1593 73.7611 80.944 76.0846 76.0577 76.9824C75.6369 77.0597 65.288 78.8043 56.9529 72.6558C55.0517 71.2534 51.5682 68.6838 51.5139 64.9143Z" fill="#E6E6E6"/>
<path d="M61.0694 49.4444C66.9958 49.4444 71.8001 44.7009 71.8001 38.8495C71.8001 32.998 66.9958 28.2545 61.0694 28.2545C55.1429 28.2545 50.3386 32.998 50.3386 38.8495C50.3386 44.7009 55.1429 49.4444 61.0694 49.4444Z" fill="#A0616A"/>
<path d="M145.109 110.03L134.058 98.8613L128.353 104.737L136.586 115.446L144.753 116.368L145.109 110.03Z" fill="#A0616A"/>
<path d="M82.0059 89.0859C82.6523 89.139 84.7064 89.5453 86.6697 88.4787C88.0096 87.7509 88.6968 86.6686 88.9289 86.3245C91.8083 82.0546 102.86 75.3962 112.779 74.9865C115.025 74.8937 116.504 75.1507 117.848 75.8423C119.753 76.823 120.514 78.2278 122.932 81.5187C124.255 83.3188 125.718 85.0147 127.057 86.8033C134.894 97.2747 137.865 98.0967 137.561 101.454C137.224 105.179 133.156 108.712 130.452 108.304C129.344 108.137 128.915 107.377 127.436 105.838C123.098 101.325 121.303 102.159 118.214 98.7021C114.608 94.6665 115.08 91.3203 113.199 91.191C111.454 91.0712 110.713 93.9258 106.988 97.7179C105.284 99.4531 104.07 100.249 100.372 102.782C85.9734 112.645 85.7436 113.338 82.8377 114.124C81.5663 114.468 72.5427 116.911 69.3282 113.024C64.2979 106.941 76.1816 88.6081 82.0059 89.0859Z" fill="#2F2E41"/>
<path d="M141.73 112.554C142.543 112.194 143.493 111.773 143.799 110.804C144.006 110.148 143.887 109.34 143.459 108.781C142.966 108.137 142.235 108.052 142.265 107.938C142.31 107.764 144.037 107.832 145.933 108.494C146.291 108.618 147.911 109.203 149.973 110.792C151.625 112.065 151.402 112.321 152.438 113.055C155.618 115.308 158.6 113.532 160.32 115.646C160.984 116.461 161.267 117.619 160.988 118.556C160.427 120.436 157.698 121.083 156.207 121.417C152.615 122.222 149.896 121.565 147.057 121.093C137.403 119.486 131.978 120.949 131.252 118.741C131.115 118.323 131.338 118.359 132.083 115.292C132.817 112.264 132.793 111.433 133.419 111.191C134.361 110.826 134.993 112.486 137.366 113.054C139.469 113.557 141.204 112.788 141.73 112.554Z" fill="#2F2E41"/>
<path d="M125.462 146.569L122.669 131.2L114.607 132.898L115.33 146.325L121.563 151.616L125.462 146.569Z" fill="#A0616A"/>
<path d="M85.1588 94.2519C85.6635 94.6542 87.1321 96.1292 89.3632 96.3353C90.8859 96.4759 92.07 95.9614 92.4578 95.8053C97.2689 93.8686 110.201 94.4866 118.641 99.6469C120.552 100.815 121.63 101.848 122.348 103.165C123.367 105.033 123.198 106.617 123.327 110.681C123.398 112.904 123.644 115.119 123.735 117.341C124.264 130.35 126.255 132.678 124.094 135.287C121.697 138.182 116.321 138.851 114.315 137.014C113.494 136.262 113.571 135.395 113.222 133.301C112.199 127.162 110.24 126.856 109.65 122.284C108.962 116.945 111.255 114.438 109.772 113.288C108.397 112.222 106.16 114.173 100.921 115.245C98.5238 115.736 97.0668 115.722 92.5669 115.767C75.043 115.945 74.4587 116.391 71.6069 115.431C70.3591 115.011 61.5033 112.029 61.0542 107.031C60.3515 99.2084 80.6112 90.6274 85.1588 94.2519Z" fill="#2F2E41"/>
<path d="M121.23 146.784C122.108 146.936 123.134 147.115 123.938 146.482C124.482 146.055 124.843 145.32 124.807 144.62C124.765 143.813 124.209 143.338 124.299 143.26C124.435 143.141 125.825 144.155 127.017 145.754C127.242 146.055 128.251 147.438 129.053 149.896C129.696 151.865 129.367 151.953 129.806 153.135C131.155 156.762 134.633 156.946 134.855 159.649C134.94 160.692 134.516 161.807 133.752 162.427C132.218 163.672 129.592 162.694 128.168 162.144C124.739 160.818 122.863 158.767 120.782 156.802C113.707 150.121 108.387 148.324 109.042 146.094C109.166 145.672 109.33 145.825 111.691 143.7C114.02 141.602 114.473 140.901 115.129 141.047C116.116 141.268 115.695 142.992 117.335 144.777C118.789 146.36 120.662 146.685 121.23 146.784Z" fill="#2F2E41"/>
<path d="M62.5324 40.8749C62.9501 39.3995 62.4254 38.8618 62.9602 38.1995C62.9602 38.1995 63.1754 37.933 65.0995 37.2138C64.5318 33.9618 64.9568 33.4119 64.9569 33.4119C65.4467 32.7782 66.428 32.625 67.0961 32.7079C68.509 32.8832 68.7591 34.1443 69.6632 34.116C70.9121 34.0769 72.41 31.6086 71.9451 29.4692C71.5658 27.7241 69.9305 26.4281 69.5206 26.653C69.1142 26.8759 67.651 25.8927 67.0961 26.0897C66.7172 26.2243 64.9335 26.0453 64.529 26.2305C64.0873 26.4329 62.8224 27.6925 62.7015 27.5338C61.8611 26.4309 61.879 26.0458 61.3914 25.8081C60.5275 25.3869 59.5882 26.1654 57.9686 26.9346C54.6363 28.5172 53.6605 27.5731 52.1213 28.9059C51.3438 29.5792 50.9268 30.8659 50.1247 33.4119C49.0029 36.9724 48.442 38.7527 48.9837 40.4525C49.5363 42.186 50.3499 41.8087 51.5509 44.2544C52.8877 46.9769 52.4269 48.5594 53.6901 49.1828C54.6664 49.6647 56.2353 49.358 56.8277 48.4788C57.8419 46.9734 55.2205 44.9371 56.1146 42.5647C56.6634 41.1084 58.3565 40.0042 59.3948 40.3117C60.5688 40.6594 60.6552 42.7377 61.3914 42.7055C62.0219 42.678 62.4596 41.1321 62.5324 40.8749Z" fill="#2F2E41"/>
<path d="M54.4032 51.0134C56.5991 48.5824 65.5435 51.0986 66.383 54.9561C66.7283 56.5428 65.4536 57.2128 65.8126 59.0397C66.3376 61.7118 69.3105 61.5296 71.5172 64.2497C74.6501 68.1114 71.4226 71.8863 74.9401 78.3309C75.6917 79.708 76.3252 80.8687 77.6498 81.992C80.6893 84.5697 83.5181 83.6856 85.0659 86.0755C86.2233 87.8627 85.7477 90.0655 85.6363 90.5815C85.1796 92.6974 83.9416 93.2129 83.0692 94.9467C81.6179 97.8312 83.2611 99.9489 83.3545 103.395C83.4712 107.707 81.1503 113.685 76.5088 115.646C71.2943 117.849 65.0052 114.2 61.9619 110.577C60.1459 108.415 59.6188 106.42 58.8243 103.959C55.2737 92.9568 53.2678 93.9518 50.5525 85.2306C47.4485 75.2608 46.8383 63.5806 50.5525 59.8845C51.0448 59.3946 52.3997 58.2623 53.2623 56.2234C54.423 53.4798 53.4202 52.1016 54.4032 51.0134Z" fill="#E6E6E6"/>
<path d="M86.8498 107.603C88.5523 109.739 88.8162 112.337 87.4394 113.407C86.0626 114.476 83.5668 113.612 81.864 111.475C81.172 110.631 80.6948 109.635 80.4723 108.571L73.3745 99.4319L77.0421 96.6699L84.3177 105.584C85.313 106.047 86.1812 106.74 86.8498 107.603Z" fill="#A0616A"/>
<path d="M60.8551 60.2779C61.1709 60.2083 63.9344 59.6427 66.1069 61.3028C68.6026 63.2098 68.4817 66.6503 68.4393 67.857C68.3414 70.6446 67.235 71.0992 66.5768 73.8336C65.3454 78.9492 67.6905 83.7033 68.9861 86.3299C69.4346 87.239 70.8754 90.021 73.7434 93.017C79.3214 98.8439 84.2985 101.91 84.2985 101.91L78.9518 106.602C78.9518 106.602 70.435 104.039 64.6642 98.9045C58.7446 93.6371 49.6413 75.0005 47.7541 70.4607C47.5916 70.0698 49.8937 76.4258 54.2891 67.1147C55.2917 64.9909 57.1287 61.0996 60.8551 60.2779Z" fill="#E6E6E6"/>
<path d="M134.165 203.147C130.766 203.661 128.28 205.809 128.612 207.945C128.944 210.08 131.968 211.394 135.367 210.879C136.728 210.692 138.024 210.185 139.146 209.402L153.517 207.043L152.558 201.435L138.219 203.438C136.911 203.023 135.52 202.923 134.165 203.147Z" fill="#FFB6B6"/>
<path d="M196.095 185.664L190.522 197.339L162.508 206.65L139.262 207.874L138.68 202.362L163.873 197.161L189.725 185.099L196.095 185.664Z" fill="#E6E6E6"/>
<path d="M144.426 229.995L139.423 242.489L132.949 238.131L136.775 225.055L144.426 229.995Z" fill="#FFB6B6"/>
<path d="M123.531 225.345L110.288 237.84L115.585 243.361L129.123 232.9L123.531 225.345Z" fill="#FFB6B6"/>
<path d="M198.577 184.666L198.43 183.649L195.045 177.111L183.862 180.016L185.922 189.024L198.577 184.666Z" fill="#FFB6B6"/>
<path d="M193.868 228.251L194.212 232.615C194.212 232.615 195.634 250.916 184.156 252.368C172.679 253.821 167.676 255.274 160.907 243.942L150.312 225.345L144.124 232.615L135.892 226.217C135.892 226.217 141.778 203.553 146.486 202.681C147.075 202.572 147.664 202.517 148.243 202.506C152.141 202.425 155.816 204.308 158.148 207.393L171.502 225.055L176.357 222.876L193.868 228.251Z" fill="#2F2E41"/>
<path d="M130.3 241.908L132.949 236.968L140.6 242.199C140.6 242.199 142.366 248.591 139.718 249.463C137.069 250.335 129.712 249.172 129.712 249.172C129.712 249.172 116.174 252.078 115.88 249.463C115.585 246.848 122.06 246.267 122.06 246.267L130.3 241.908Z" fill="#2F2E41"/>
<path d="M159.141 238.421L138.688 225.697L128.24 234.934L121.177 226.798C121.177 226.798 134.126 207.911 137.952 207.04C141.778 206.168 147.958 205.587 147.958 205.587L166.793 222.73L159.141 238.421Z" fill="#2F2E41"/>
<path d="M109.994 236.678L116.762 243.942L115.87 244.696C115.87 244.696 114.114 252.247 109.994 249.693C105.874 247.138 105.579 246.557 105.579 246.557C105.579 246.557 93.8074 249.172 92.6302 244.523C91.453 239.874 94.6903 240.746 94.6903 240.746L97.6298 242.489L109.994 236.678Z" fill="#2F2E41"/>
<path d="M187.394 183.213C192.595 183.213 196.811 179.05 196.811 173.914C196.811 168.779 192.595 164.616 187.394 164.616C182.192 164.616 177.976 168.779 177.976 173.914C177.976 179.05 182.192 183.213 187.394 183.213Z" fill="#FFB6B6"/>
<path d="M185.186 187.135L198.724 183.067C198.724 183.067 204.021 195.271 203.138 200.792C202.255 206.313 194.212 232.615 194.212 232.615L176.357 222.876C176.357 222.876 176.063 217.064 175.18 214.449C174.297 211.834 171.502 203.843 177.682 197.16C183.862 190.477 185.186 187.135 185.186 187.135Z" fill="#E6E6E6"/>
<path d="M155.391 248.15C153.188 250.756 152.764 253.991 154.444 255.375C156.124 256.759 159.271 255.768 161.475 253.161C162.369 252.131 163.001 250.905 163.318 249.585L172.511 238.427L168.033 234.848L158.626 245.719C157.366 246.263 156.257 247.096 155.391 248.15Z" fill="#FFB6B6"/>
<path d="M195.57 192.998L198.77 205.512L183.109 230.263L167.122 246.128L161.94 241.883L178.063 222.075L190.285 196.554L195.57 192.998Z" fill="#E6E6E6"/>
<path d="M178.712 172.316C181.127 172.311 181.264 172.327 181.655 172.316C184.65 172.238 185.434 171.075 186.952 171.154C189.662 171.296 186.085 184.711 184.598 190.913C183.139 196.995 188.069 202.446 188.424 202.826C193.428 208.2 202.219 209.183 203.727 206.894C204.948 205.042 200.621 202.226 201.667 198.177C202.689 194.22 207.41 194.641 208.73 190.913C210.112 187.009 205.468 185.039 202.55 175.513C200.874 170.041 201.17 169.022 199.607 165.633C195.427 156.575 174.94 160.432 177.24 168.83C177.685 170.454 176.501 172.322 178.712 172.316Z" fill="#2F2E41"/>
<path d="M208.784 61.9341H109.808C107.009 61.9341 104.732 59.6856 104.732 56.9222V5.01188C104.732 2.24848 107.009 0 109.808 0H208.784C211.583 0 213.86 2.24848 213.86 5.01188V56.9222C213.86 59.6856 211.583 61.9341 208.784 61.9341Z" fill="white"/>
<path d="M208.784 61.9341H109.808C107.009 61.9341 104.732 59.6856 104.732 56.9222V5.01188C104.732 2.24848 107.009 0 109.808 0H208.784C211.583 0 213.86 2.24848 213.86 5.01188V56.9222C213.86 59.6856 211.583 61.9341 208.784 61.9341ZM109.808 0.836948C107.476 0.836948 105.579 2.70986 105.579 5.01188V56.9222C105.579 59.2242 107.476 61.0972 109.808 61.0972H208.784C211.115 61.0972 213.012 59.2242 213.012 56.9222V5.01188C213.012 2.70986 211.115 0.836948 208.784 0.836948H109.808Z" fill="#3F3D56"/>
<path d="M201.145 6.27707C201.847 6.27707 202.416 5.715 202.416 5.02165C202.416 4.32831 201.847 3.76624 201.145 3.76624C200.443 3.76624 199.873 4.32831 199.873 5.02165C199.873 5.715 200.443 6.27707 201.145 6.27707Z" fill="#3F3D56"/>
<path d="M204.536 6.27707C205.238 6.27707 205.807 5.715 205.807 5.02165C205.807 4.32831 205.238 3.76624 204.536 3.76624C203.833 3.76624 203.264 4.32831 203.264 5.02165C203.264 5.715 203.833 6.27707 204.536 6.27707Z" fill="#3F3D56"/>
<path d="M207.926 6.27707C208.629 6.27707 209.198 5.715 209.198 5.02165C209.198 4.32831 208.629 3.76624 207.926 3.76624C207.224 3.76624 206.655 4.32831 206.655 5.02165C206.655 5.715 207.224 6.27707 207.926 6.27707Z" fill="#3F3D56"/>
<path d="M111.937 25.3176C111.587 25.3176 111.301 25.5992 111.301 25.9453C111.301 26.1141 111.367 26.2702 111.487 26.3855C111.608 26.5077 111.766 26.573 111.937 26.573H207.079C207.429 26.573 207.714 26.2915 207.714 25.9453C207.714 25.7766 207.648 25.6204 207.529 25.5052C207.408 25.383 207.249 25.3176 207.079 25.3176H111.937Z" fill="#E6E6E6"/>
<path d="M195.211 25.1084V26.7823H111.937C111.704 26.7823 111.492 26.6902 111.339 26.5354C111.183 26.3847 111.089 26.1755 111.089 25.9453C111.089 25.485 111.471 25.1084 111.937 25.1084H195.211Z" fill="#3B82F6"/>
<path d="M206.019 21.9699H197.542C196.607 21.9699 195.847 21.2191 195.847 20.296C195.847 19.3728 196.607 18.6221 197.542 18.6221H206.019C206.954 18.6221 207.714 19.3728 207.714 20.296C207.714 21.2191 206.954 21.9699 206.019 21.9699Z" fill="#E6E6E6"/>
<path d="M150.496 13.1819H112.573C111.638 13.1819 110.878 12.4312 110.878 11.508C110.878 10.5848 111.638 9.83411 112.573 9.83411H150.496C151.431 9.83411 152.192 10.5848 152.192 11.508C152.192 12.4312 151.431 13.1819 150.496 13.1819Z" fill="#E6E6E6"/>
<path d="M111.937 44.149C111.587 44.149 111.301 44.4306 111.301 44.7767C111.301 44.9455 111.367 45.1016 111.487 45.2168C111.608 45.339 111.766 45.4044 111.937 45.4044H207.079C207.429 45.4044 207.714 45.1228 207.714 44.7767C207.714 44.6079 207.648 44.4518 207.529 44.3366C207.408 44.2144 207.249 44.149 207.079 44.149H111.937Z" fill="#E6E6E6"/>
<path d="M162.576 43.9398V45.6137H111.937C111.704 45.6137 111.492 45.5216 111.339 45.3667C111.183 45.2161 111.089 45.0069 111.089 44.7767C111.089 44.3164 111.471 43.9398 111.937 43.9398H162.576Z" fill="#3B82F6"/>
<path d="M206.019 40.8012H197.542C196.607 40.8012 195.847 40.0505 195.847 39.1273C195.847 38.2041 196.607 37.4534 197.542 37.4534H206.019C206.954 37.4534 207.714 38.2041 207.714 39.1273C207.714 40.0505 206.954 40.8012 206.019 40.8012Z" fill="#E6E6E6"/>
</svg>
