<svg width="257" height="256" viewBox="0 0 257 256" fill="none" xmlns="http://www.w3.org/2000/svg">
<path d="M155.731 77.178C156.05 77.1972 156.365 77.0874 156.634 76.8634C156.904 76.6395 157.114 76.3122 157.237 75.9259C157.36 75.5396 157.39 75.113 157.322 74.7038C157.254 74.2947 157.092 73.9228 156.858 73.6386C156.819 73.4339 156.791 73.2869 156.751 73.0823C156.765 73.0377 156.78 72.9932 156.794 72.9488C158.225 68.4658 163.077 68.4968 164.497 72.9863C165.757 76.9711 167.361 80.9626 167.755 85.1758C167.929 87.0381 167.856 88.9259 167.539 90.7553C170.498 82.2787 172.034 73.0657 172.044 63.7409C172.045 61.4009 171.946 59.0628 171.748 56.7373C171.584 54.8309 171.357 52.9381 171.066 51.0589C169.48 40.8624 166.075 31.3053 161.13 23.1726C158.737 21.4578 156.801 18.8208 155.585 15.617C155.144 14.4653 154.832 13.2359 154.66 11.967C154.93 12.0135 155.678 6.61401 155.474 6.28273C155.85 5.533 156.524 5.16031 156.934 4.42872C158.978 0.790226 161.794 1.42553 163.263 6.36995C166.403 8.45102 166.434 11.9023 164.507 15.2217C163.281 17.3335 163.113 20.191 162.037 22.4519C162.148 22.6379 162.263 22.8181 162.374 23.0041C164.396 26.4195 166.159 30.087 167.637 33.9541C167.219 29.6652 167.836 24.4982 168.888 21.1675C170.086 17.3725 172.332 14.1763 174.309 10.8956C176.684 6.95487 181.554 8.67467 181.972 13.6701C181.977 13.7185 181.98 13.7668 181.984 13.8152C181.691 14.0328 181.403 14.2637 181.122 14.508C180.769 14.8181 180.495 15.261 180.336 15.7789C180.178 16.2968 180.142 16.8655 180.234 17.4103C180.326 17.9552 180.541 18.4509 180.851 18.8325C181.162 19.2141 181.552 19.4638 181.972 19.5488L182.015 19.5575C181.911 20.9475 181.726 22.3251 181.462 23.6783C183.999 36.5605 178.522 41.2524 170.703 41.4632C170.53 41.5794 170.362 41.6956 170.19 41.8061C171.674 47.3317 172.606 53.0874 172.96 58.9284C173.161 62.3745 173.149 65.8362 172.925 69.2797L172.938 69.1577C173.505 65.3285 175.06 61.8735 177.342 59.376C180.731 55.7202 185.518 54.3739 189.174 51.4354C190.934 50.0208 193.189 51.8488 192.882 54.5283C192.877 54.571 192.872 54.6138 192.867 54.6566C192.322 54.9481 191.792 55.2839 191.278 55.662C190.985 55.8797 190.697 56.1106 190.416 56.3549C190.063 56.6649 189.789 57.1079 189.63 57.6258C189.472 58.1437 189.437 58.7123 189.528 59.2572C189.62 59.8021 189.836 60.2978 190.146 60.6794C190.456 61.061 190.846 61.3106 191.266 61.3957L191.309 61.4044C191.34 61.4102 191.367 61.416 191.398 61.4219C190.467 64.3417 189.16 67.0293 187.534 69.3669C185.948 80.6126 179.136 81.6795 171.849 78.4047H171.845C171.045 82.9672 169.887 87.4082 168.388 91.6562H156.04C155.996 91.476 155.956 91.29 155.917 91.1098C157.059 91.2042 158.207 91.1144 159.333 90.8425C158.417 89.3662 157.501 87.8783 156.585 86.4021C156.564 86.3745 156.545 86.3454 156.527 86.3149C156.063 85.5593 155.593 84.8096 155.129 84.054L155.129 84.0531C155.104 81.7371 155.306 79.4265 155.731 77.1783L155.731 77.178Z" fill="#F2F2F2"/>
<path d="M195.376 35.6786C193.08 24.6858 211.598 15.2593 216.461 24.1118C217.137 22.8532 219.636 22.0888 220.783 22.4748C221.929 22.8609 222.894 23.8261 223.834 24.7604C225.128 26.0654 226.468 27.4166 227.262 29.2929C228.062 31.1615 228.185 33.7097 227.109 35.3312C226.257 36.6206 223.74 37.4546 222.458 37.7943C221.565 38.0337 220.812 38.2267 220.165 38.3657C219.578 37.2542 219.307 35.9064 219.401 34.559C218.966 34.9446 218.601 35.452 218.332 36.0448C218.064 36.6375 217.899 37.3009 217.849 37.9874C217.831 38.2731 225.075 73.2746 225.075 73.2746C224.205 73.9251 223.289 74.4655 222.341 74.8884C220.465 71.1234 219.028 67.0113 218.078 62.6884C217.86 65.579 217.887 68.4926 218.16 71.3751C218.306 72.9915 218.514 74.5971 218.784 76.1856C210.176 78.6256 197.228 77.8226 191.596 67.4449C191.595 67.402 191.594 67.359 191.593 67.316C191.588 66.9064 191.476 66.5115 191.274 66.199C191.072 65.8865 190.794 65.6758 190.487 65.6031C190.18 65.5303 189.863 65.5999 189.591 65.8001C189.319 66.0002 189.108 66.3184 188.995 66.7002C188.858 67.1581 188.733 67.5544 188.62 67.8696C186.98 60.1635 189.103 51.2452 195.376 35.6786Z" fill="#2F2E41"/>
<path d="M180.728 219.977V220.337C180.717 220.217 180.717 220.096 180.728 219.977Z" fill="#2F2E41"/>
<path d="M189.158 157.765C189.377 157.687 189.6 157.63 189.825 157.595C189.566 157.65 189.344 157.707 189.158 157.765Z" fill="#2F2E41"/>
<path d="M188.963 157.83C189.022 157.808 189.088 157.786 189.158 157.765C189.093 157.787 189.03 157.803 188.963 157.83Z" fill="#2F2E41"/>
<path d="M251.243 255.999H219.69C219.24 255.527 218.927 254.866 218.804 254.127C218.681 253.388 218.756 252.616 219.015 251.941C219.877 249.345 218.188 246.972 218.188 246.972C217.614 246.09 217.216 245.036 217.027 243.903C216.838 242.77 216.866 241.593 217.106 240.477C217.942 236.643 214.666 225.82 214.666 225.82C214.666 225.82 212.9 239.795 210.736 255.999H180.728C180.225 254.874 179.96 253.594 179.96 252.29C179.96 250.986 180.225 249.706 180.728 248.581C182.477 244.687 180.728 243.94 180.728 243.94C180.728 243.94 178.979 239.583 180.728 236.419C182.477 233.255 180.728 220.337 180.728 220.337C180.794 220.908 181.292 219.87 182.059 217.692C183.227 214.379 185.012 208.422 186.815 201.506C188.104 196.569 189.403 191.138 190.489 185.828H190.492C190.776 184.433 191.046 183.051 191.301 181.681C191.799 178.995 192.226 176.385 192.55 173.934C193.254 168.655 193.486 164.12 192.946 161.171C192.498 158.716 191.517 157.363 189.825 157.595C190.732 157.398 192.06 157.211 193.697 157.034C193.992 157.003 194.298 156.972 194.614 156.937C206.824 155.726 233.02 155.03 233.02 155.03L241.044 173.899L251.206 197.802C251.206 197.802 250.929 229.867 251.243 255.999Z" fill="#2F2E41"/>
<path d="M217.565 73.473L199.079 68.3233L195.408 78.0258L183.048 87.4235C183.048 87.4235 191.015 130.205 190.97 136.222C190.854 151.498 172.242 185.743 186.3 183.109C200.359 180.474 203.215 169.439 207.728 171.184C211.799 172.758 216.769 179.758 220.096 174.752C223.423 169.745 224.595 175.526 226.699 175.726C227.699 175.821 227.097 169.404 229.613 175.926C232.128 182.447 245.469 173.669 240.947 167.731C233.417 157.842 231.887 84.944 231.887 84.944L223.504 81.5568L217.565 73.473Z" fill="#E6E6E6"/>
<path d="M182.698 228.838C183.441 227.675 183.809 226.177 183.723 224.663C183.638 223.149 183.106 221.739 182.241 220.732C182.063 220.531 181.872 220.35 181.671 220.19L184.762 200.269L177.616 194.653L175.629 222.543C175.189 223.69 175.051 224.995 175.235 226.255C175.42 227.515 175.917 228.66 176.649 229.51C177.069 229.989 177.557 230.354 178.084 230.586C178.612 230.817 179.169 230.909 179.724 230.857C180.278 230.806 180.82 230.611 181.317 230.285C181.815 229.958 182.259 229.506 182.623 228.955C182.648 228.916 182.673 228.877 182.698 228.838Z" fill="#A0616A"/>
<path d="M204.884 123.833C204.839 123.193 204.217 122.902 203.355 122.501C202.49 122.15 201.667 121.639 200.912 120.981C199.003 119.171 199.755 117.277 200.793 114.66C200.996 114.151 201.207 113.622 201.405 113.071C201.992 111.441 201.057 104.715 198.618 93.0769C197.867 89.4941 197.87 86.9636 197.351 85.2847C196.834 83.6059 195.798 82.7785 192.975 82.6054C189.562 82.3792 186.221 83.939 183.683 86.9429C183.615 87.0225 183.543 87.109 183.475 87.1921C183.346 87.3513 183.219 87.514 183.095 87.6802C180.748 90.781 179.405 94.9536 179.347 99.3251L179.334 100.069L178.751 135.627L177.114 166.83L174.858 209.813L176.529 209.921L183.198 210.357L184.007 210.409L185.926 199.837L188.235 187.115L189.084 182.442L191.717 167.945L192.946 161.171L193.697 157.034L194.003 155.345L195.495 147.134C195.529 146.961 198.961 129.178 202.918 126.205C204.394 125.097 204.926 124.453 204.884 123.833Z" fill="#E6E6E6"/>
<path d="M249.277 228.626C248.443 227.575 247.955 226.137 247.916 224.62C247.877 223.103 248.29 221.626 249.068 220.503C249.229 220.278 249.404 220.071 249.591 219.883L244.888 200.514L251.533 193.922L255.79 221.371C256.321 222.449 256.565 223.727 256.485 225.006C256.405 226.285 256.004 227.493 255.346 228.442C254.967 228.977 254.512 229.409 254.007 229.713C253.501 230.017 252.955 230.188 252.399 230.214C251.843 230.241 251.289 230.124 250.768 229.87C250.246 229.615 249.768 229.229 249.361 228.732C249.332 228.697 249.304 228.662 249.277 228.626Z" fill="#A0616A"/>
<path d="M252.527 186.596C252.527 186.596 247.345 162.651 248.925 160.059C250.506 157.466 245.838 156.96 247.85 152.132C249.861 147.305 247.085 146.497 247.085 146.497L245.578 135.397L242.885 108.133L242.803 107.322L242.02 99.39C241.801 97.1245 241.236 94.9401 240.36 92.9675C239.484 90.995 238.313 89.2748 236.919 87.9097C236.848 87.8381 236.775 87.7694 236.703 87.7006C236.371 87.3871 236.032 87.0967 235.686 86.8293C233.101 84.8262 230.065 84.0689 227.1 84.6875C221.514 85.83 223.253 88.5656 222.347 95.8943C220.874 107.81 220.492 114.628 221.21 116.168C221.452 116.687 221.706 117.183 221.948 117.659C223.196 120.118 224.097 121.892 222.347 123.965C221.649 124.723 220.873 125.346 220.042 125.817C219.22 126.34 218.624 126.716 218.632 127.359C218.641 127.982 219.223 128.544 220.78 129.436C222.667 130.521 224.694 134.621 226.354 138.809C227.671 142.185 228.845 145.654 229.872 149.199L244.14 201.896L246.467 210.49L247.27 210.323L253.862 208.95L255.515 208.607L252.527 186.596Z" fill="#E6E6E6"/>
<path d="M209.766 67.9594C218.095 67.9594 224.847 59.092 224.847 48.1534C224.847 37.2148 218.095 28.3474 209.766 28.3474C201.436 28.3474 194.684 37.2148 194.684 48.1534C194.684 59.092 201.436 67.9594 209.766 67.9594Z" fill="#A0616A"/>
<path d="M187.145 37.2229C184.849 26.2301 203.367 16.8035 208.229 25.656C208.906 24.3975 211.405 23.633 212.551 24.0191C213.698 24.4052 214.662 25.3704 215.603 26.3047C216.896 27.6096 218.237 28.9609 219.031 30.8372C219.83 32.7058 219.954 35.2539 218.878 36.8754C218.025 38.1649 215.509 38.9988 214.227 39.3386C213.333 39.5779 212.58 39.771 211.934 39.91C211.346 38.7984 211.076 37.4507 211.169 36.1033C210.734 36.4889 210.369 36.9963 210.101 37.589C209.832 38.1818 209.667 38.8452 209.617 39.5316C209.599 39.8173 216.843 74.8189 216.843 74.8189C215.973 75.4694 215.057 76.0097 214.109 76.4327C212.233 72.6677 210.796 68.5556 209.846 64.2327C209.628 67.1233 209.656 70.0368 209.929 72.9194C210.074 74.5358 210.282 76.1414 210.552 77.7299C201.944 80.1699 188.997 79.3669 183.364 68.9892C183.363 68.9462 183.362 68.9033 183.361 68.8603C183.357 68.4506 183.244 68.0558 183.042 67.7433C182.841 67.4308 182.562 67.2201 182.255 67.1473C181.948 67.0746 181.632 67.1442 181.359 67.3444C181.087 67.5445 180.877 67.8627 180.763 68.2445C180.627 68.7023 180.501 69.0986 180.389 69.4139C178.748 61.7077 180.871 52.7894 187.145 37.2229Z" fill="#2F2E41"/>
<path d="M112.348 105.661C112.029 105.68 111.714 105.571 111.444 105.347C111.175 105.123 110.964 104.795 110.841 104.409C110.718 104.023 110.689 103.596 110.757 103.187C110.824 102.778 110.986 102.406 111.221 102.122C111.26 101.917 111.288 101.77 111.327 101.566C111.313 101.521 111.299 101.476 111.285 101.432C109.853 96.9491 105.001 96.98 103.582 101.47C102.322 105.454 100.718 109.446 100.323 113.659C100.149 115.521 100.223 117.409 100.54 119.239C97.5809 110.762 96.0444 101.549 96.0345 92.2241C96.0339 89.8842 96.1329 87.546 96.331 85.2206C96.4948 83.3142 96.722 81.4214 97.0126 79.5422C98.5986 69.3457 102.004 59.7886 106.948 51.6559C109.342 49.9411 111.277 47.3041 112.494 44.1002C112.935 42.9486 113.246 41.7191 113.419 40.4502C113.149 40.4967 112.401 35.0973 112.605 34.766C112.228 34.0163 111.555 33.6436 111.144 32.912C109.101 29.2735 106.285 29.9088 104.815 34.8532C101.675 36.9343 101.645 40.3856 103.572 43.705C104.797 45.8168 104.966 48.6743 106.041 50.9352C105.931 51.1212 105.815 51.3013 105.705 51.4874C103.682 54.9028 101.919 58.5703 100.442 62.4374C100.86 58.1485 100.242 52.9815 99.1901 49.6507C97.9922 45.8558 95.7469 42.6596 93.7697 39.3788C91.3947 35.4382 86.5245 37.158 86.1061 42.1534C86.1021 42.2018 86.0981 42.2501 86.0943 42.2985C86.3879 42.516 86.6754 42.747 86.9567 42.9913C87.3101 43.3013 87.5839 43.7443 87.7422 44.2622C87.9006 44.7801 87.9362 45.3487 87.8442 45.8936C87.7523 46.4385 87.5372 46.9342 87.2271 47.3158C86.917 47.6974 86.5263 47.947 86.1063 48.0321L86.0633 48.0408C86.1679 49.4308 86.3528 50.8084 86.6165 52.1616C84.0799 65.0437 89.5562 69.7357 97.3755 69.9465C97.5481 70.0627 97.7163 70.1789 97.889 70.2894C96.4042 75.815 95.4729 81.5707 95.1184 87.4117C94.9177 90.8578 94.9296 94.3195 95.1538 97.763L95.1405 97.6409C94.574 93.8118 93.0185 90.3568 90.7369 87.8592C87.348 84.2034 82.5602 82.8572 78.9042 79.9187C77.1444 78.5041 74.8892 80.3321 75.1963 83.0115C75.2012 83.0543 75.2062 83.0971 75.2113 83.1399C75.7563 83.4314 76.2869 83.7672 76.8001 84.1453C77.0938 84.3629 77.3813 84.5939 77.6626 84.8381C78.0159 85.1482 78.2898 85.5912 78.4481 86.1091C78.6065 86.627 78.642 87.1956 78.5501 87.7405C78.4582 88.2854 78.2431 88.7811 77.933 89.1627C77.6228 89.5443 77.2322 89.7939 76.8122 89.879L76.7691 89.8876C76.7382 89.8935 76.7116 89.8993 76.6807 89.9051C77.6119 92.825 78.9188 95.5126 80.5443 97.8502C82.1304 109.096 88.9424 110.163 96.2293 106.888H96.2337C97.0332 111.45 98.1916 115.891 99.6903 120.139H112.038C112.082 119.959 112.122 119.773 112.162 119.593C111.019 119.687 109.872 119.598 108.745 119.326C109.661 117.849 110.578 116.362 111.494 114.885C111.514 114.858 111.533 114.829 111.551 114.798C112.016 114.043 112.485 113.293 112.95 112.537L112.95 112.536C112.975 110.22 112.772 107.91 112.348 105.662L112.348 105.661Z" fill="#F2F2F2"/>
<path d="M54.7314 24.1122C54.4512 24.9698 45.8099 24.8779 45.4142 25.6416C42.3628 31.5377 53.3625 56.6241 50.3111 62.5279L49.886 63.1932C50.8815 62.5907 51.8377 61.8822 52.7452 61.0749C52.8267 58.6583 52.9083 56.2341 52.9956 53.8176C53.9096 55.353 54.6473 57.0561 55.1852 58.8724C55.8956 58.2148 56.4784 56.9956 59.5235 54.5976C60.7563 52.8192 62.1775 51.2829 63.7434 50.0358L54.7314 24.1122Z" fill="#2F2E41"/>
<path d="M61.0063 72.4339C60.0527 71.6181 58.9647 71.1128 57.8327 70.9597C56.7006 70.8067 55.557 71.0104 54.4969 71.554C53.4368 72.0976 52.4907 72.9653 51.737 74.0852C50.9834 75.2051 50.444 76.5449 50.1636 77.9934L37.0321 122.926L14.4604 106.098C14.3613 104.163 13.7982 102.32 12.852 100.832C11.9058 99.3439 10.625 98.2875 9.1934 97.8144C7.76176 97.3413 6.2528 97.4757 4.88294 98.1985C3.51309 98.9212 2.35272 100.195 1.56825 101.837C0.783789 103.48 0.415533 105.406 0.516304 107.34C0.617075 109.274 1.1817 111.117 2.12919 112.604C3.07668 114.09 4.35835 115.145 5.7904 115.616C7.22245 116.087 8.73129 115.95 10.1005 115.225C14.8539 121.888 35.4616 149.203 43.9931 138.531C51.1642 129.559 61.513 94.7909 64.0041 82.7846C64.4032 80.8647 64.3279 78.8281 63.7892 76.9679C63.2504 75.1078 62.276 73.5202 61.0063 72.4339Z" fill="#FFB6B6"/>
<path d="M36.3488 140.414L40.4927 165.01L70.7944 168.61L73.5793 147.193L36.3488 140.414Z" fill="#FFB6B6"/>
<path d="M82.6352 203.489C82.6214 203.841 82.6048 204.19 82.5854 204.543C82.2948 209.639 81.9626 215.518 81.6028 221.959C81.0353 232.181 80.4014 243.821 79.762 255.998H16.2038L28.5302 207.343C28.5302 207.343 33.5074 203.745 30.9735 197.7C28.4395 191.654 33.4254 196.472 33.4717 187.838C33.5181 179.205 37.9859 170.02 37.9859 170.02L38.7195 156.948L39.1375 156.959L72.2134 157.682L72.8168 157.697L73.8327 168.919C80.001 178.558 83.1477 190.916 82.6352 203.489Z" fill="#2F2E41"/>
<path d="M55.2611 60.5136L70.3438 59.4933L77.3492 74.0301C77.3492 74.0301 90.5302 76.9241 89.6166 97.3214C88.7029 117.719 73.5792 135.618 73.5792 135.618L74.2257 132.707L73.1029 136.92L73.2469 139.286L74.7786 141.791L74.9363 144.382L73.5793 148.481C73.7557 148.853 73.8494 149.282 73.8496 149.72C73.8498 150.157 73.7566 150.587 73.5805 150.958C73.4044 151.33 73.1525 151.63 72.8533 151.823C72.5542 152.016 72.2197 152.096 71.888 152.052L50.0948 149.184C49.5986 147.391 49.2005 145.247 47.2116 148.817L45.1587 148.556L36.6245 147.47L36.1222 145.067C35.8367 143.701 35.7923 142.269 35.9921 140.877C36.192 139.486 36.6309 138.173 37.2754 137.038C36.5341 133.989 36.7283 130.681 37.8165 127.818L37.8574 127.711L38.7636 126.719C38.7636 126.719 28.8486 107.157 40.2308 92.4231L44.799 82.2245L49.9106 74.0348L55.2611 60.5136Z" fill="#3B82F6"/>
<path d="M59.0149 51.9325C66.914 51.9325 73.3174 43.5233 73.3174 33.15C73.3174 22.7767 66.914 14.3675 59.0149 14.3675C51.1159 14.3675 44.7124 22.7767 44.7124 33.15C44.7124 43.5233 51.1159 51.9325 59.0149 51.9325Z" fill="#FFB6B6"/>
<path d="M69.8778 60.2074C68.7131 58.9294 67.9024 57.182 67.5717 55.2367C67.3072 57.5986 67.3763 60.0043 67.7756 62.3333C67.0011 63.0981 66.2499 63.8246 65.5394 64.4822C65.0015 62.6659 64.2638 60.9628 63.3498 59.4274C63.2625 61.8439 63.181 64.2681 63.0994 66.6847C62.192 67.492 61.2357 68.2005 60.2402 68.803L60.6653 68.1377C63.7167 62.2339 55.8204 51.3671 58.8717 45.471C59.7278 43.8192 55.8611 30.7653 52.9145 30.1764C50.2941 29.6564 50.4047 30.6505 47.8658 31.377C47.6021 29.933 47.1928 28.5416 46.6487 27.2398C46.7935 28.6904 46.7601 30.1621 46.5497 31.5988C45.6471 31.6447 44.937 30.8894 43.9758 30.6964C37.8439 29.4652 38.467 20.755 40.1732 17.9943C41.8853 15.2412 47.5688 14.4153 50.1893 13.5205C50.428 13.2147 50.9696 13.4059 51.2083 13.1153C56.2303 7.0796 62.9469 6.08005 68.9912 8.75519C75.437 11.608 79.4559 17.1295 81.5185 25.6416L82.1101 32.4534C82.6408 34.6436 81.9732 44.8345 81.5185 47.054C79.7511 55.6817 75.9871 51.3748 69.8778 60.2074Z" fill="#2F2E41"/>
<path d="M90.7321 149.194L90.169 91.6045C90.1397 89.1647 89.3811 86.8379 88.0569 85.1262C86.7326 83.4145 84.9491 82.4551 83.091 82.4551C82.1297 82.4551 81.1786 82.7122 80.2955 83.2107C79.4124 83.7092 78.6158 84.4387 77.9544 85.3546C77.293 86.2706 76.7805 87.3538 76.4483 88.5384C76.1161 89.7229 75.971 90.9839 76.022 92.2444L78.0034 152.042L78.041 188.445C76.8732 189.095 75.8861 190.202 75.214 191.614C74.5418 193.027 74.2171 194.677 74.2839 196.341C74.3508 198.004 74.806 199.6 75.5877 200.912C76.3693 202.224 77.4396 203.188 78.653 203.673C79.8665 204.159 81.1642 204.142 82.3701 203.625C83.5759 203.108 84.6313 202.116 85.3929 200.784C86.1544 199.451 86.5853 197.844 86.6268 196.179C86.6684 194.514 86.3187 192.873 85.6252 191.478L90.7321 149.194Z" fill="#FFB6B6"/>
<path d="M164.549 223.701C164.549 223.701 163.678 244.27 163.278 256H133.298C132.68 245.325 132.473 237.482 132.473 237.482L130.832 256H100.528L98.6493 221.704L107.728 192.149C107.728 192.149 156.93 187.668 161.494 193.353C166.055 199.033 164.549 223.701 164.549 223.701Z" fill="#2F2E41"/>
<path d="M138.037 50.68C147.082 50.68 154.414 41.0515 154.414 29.1743C154.414 17.297 147.082 7.66858 138.037 7.66858C128.993 7.66858 121.661 17.297 121.661 29.1743C121.661 41.0515 128.993 50.68 138.037 50.68Z" fill="#FFB6B6"/>
<path d="M157.125 22.1862C155.443 23.1934 154.354 30.4883 153.031 28.7924C151.709 27.0965 151.798 24.8895 150.015 24.2637C148.576 23.7561 147.027 24.3362 145.714 25.2511C145.479 25.4125 145.252 25.5881 145.031 25.7626C144.884 25.6343 144.739 25.5136 144.583 25.4022C143.408 24.5769 142.038 24.3744 140.753 24.8365C141.768 25.283 142.651 26.1373 143.276 27.2785C142.836 27.6652 142.391 28.053 141.936 28.3965C138.133 31.2788 132.721 25.0113 128.717 22.6567C131.225 28.8364 129.99 31.3957 127.813 37.7868L127.738 38.1507C127.861 36.5489 124.087 35.3552 124.306 37.6101C124.461 39.211 125.516 42.7695 126.107 44.183C121.898 37.7916 119.022 29.9703 119.629 21.9019C119.761 20.207 119.721 18.4187 120.387 16.9476C121.053 15.4842 122.442 14.4572 123.671 15.0152C123.567 12.4422 123.996 9.88011 124.912 7.60148C125.828 5.32284 127.197 3.41278 128.874 2.07438C130.551 0.735971 132.472 0.0192411 134.434 0.000382023C136.396 -0.0184771 138.326 0.661244 140.017 1.96728C141.589 3.17836 142.901 4.89123 144.341 6.36871C145.782 7.84618 147.442 9.13404 149.269 9.25602C150.428 9.32941 151.689 8.9579 152.684 9.74604C153.837 10.6606 154.035 12.5753 154.208 14.4177C153.179 14.5508 152.204 15.0837 151.407 15.9481C152.472 15.8056 153.543 16.1074 154.469 16.8105C154.487 16.821 154.503 16.8335 154.519 16.848C155.129 19.8929 155.066 20.5679 157.125 22.1862Z" fill="#2F2E41"/>
<path d="M100.601 202.554C114.546 181.117 109.836 153.851 104.301 126.327L105.354 85.667C105.406 83.6724 105.822 81.7235 106.568 79.9848C107.314 78.246 108.368 76.7685 109.64 75.677L123.877 63.4629L129.418 52.9417L144.692 54.9476L153.162 66.7108L162.538 76.1102C164.892 78.4703 166.683 81.665 167.7 85.3178C168.717 88.9705 168.918 92.929 168.278 96.7266L159.306 150.011C159.306 150.011 163.059 177.634 160.769 180.684C158.48 183.735 152.58 180.686 157.258 184.111C162.873 188.22 167.978 187.462 165.137 191.193C162.296 194.925 165.892 200.112 165.892 200.112L100.601 202.554Z" fill="#3B82F6"/>
<path d="M106.563 233.709L108.888 211.957L99.6113 208.479L97.7764 231.591C97.0086 232.516 96.4525 233.703 96.1704 235.02C95.8884 236.337 95.8916 237.731 96.1798 239.045C96.4679 240.36 97.0296 241.542 97.8016 242.461C98.5736 243.379 99.5254 243.996 100.55 244.243C101.574 244.49 102.631 244.357 103.601 243.858C104.571 243.36 105.416 242.516 106.041 241.421C106.665 240.327 107.045 239.025 107.138 237.663C107.23 236.3 107.031 234.931 106.563 233.709Z" fill="#FFB6B6"/>
<path d="M124.225 67.3841C124.225 67.3841 97.8188 78.6703 97.1892 86.9282C96.5596 95.1862 96.7684 100.241 93.9814 133.286L94.1283 222.3C94.1283 222.3 111.832 227.278 110.016 221.956C108.201 216.634 108.834 214.13 108.834 214.13C108.834 214.13 112.63 212.163 111.68 205.914C110.729 199.665 115.494 168.698 115.494 168.698L118.502 113.16L124.225 67.3841Z" fill="#3B82F6"/>
<path d="M156.783 232.557L155.546 210.652L164.976 207.978L165.657 231.198C166.377 232.186 166.873 233.419 167.089 234.757C167.305 236.095 167.232 237.486 166.879 238.773C166.526 240.06 165.907 241.192 165.091 242.042C164.275 242.892 163.294 243.426 162.26 243.585C161.225 243.743 160.177 243.519 159.234 242.939C158.291 242.358 157.49 241.443 156.921 240.298C156.352 239.152 156.038 237.82 156.013 236.453C155.989 235.085 156.256 233.736 156.783 232.557Z" fill="#FFB6B6"/>
<path d="M147.438 65.0718C147.438 65.0718 173.226 78.6005 173.443 86.8948C173.66 95.1892 173.201 100.216 174.337 133.429L169.76 222.24C169.76 222.24 151.846 225.687 153.923 220.532C155.999 215.378 155.492 212.825 155.492 212.825C155.492 212.825 151.802 210.536 153.061 204.382C154.321 198.228 151.107 166.918 151.107 166.918L150.871 111.241L147.438 65.0718Z" fill="#3B82F6"/>
</svg>
