<svg width="21" height="22" viewBox="0 0 21 22" fill="none" xmlns="http://www.w3.org/2000/svg">
<path d="M2 21.2626C1.45 21.2626 0.979 21.0665 0.587 20.6745C0.195667 20.2832 0 19.8126 0 19.2626V5.26255C0 4.71255 0.195667 4.24155 0.587 3.84955C0.979 3.45822 1.45 3.26255 2 3.26255H10.925L8.925 5.26255H2V19.2626H16V12.3125L18 10.3125V19.2626C18 19.8126 17.8043 20.2832 17.413 20.6745C17.021 21.0665 16.55 21.2626 16 21.2626H2ZM13.175 3.83755L14.6 5.23755L8 11.8375V13.2625H9.4L16.025 6.63755L17.45 8.03755L10.25 15.2625H6V11.0125L13.175 3.83755ZM17.45 8.03755L13.175 3.83755L15.675 1.33755C16.075 0.937549 16.5543 0.737549 17.113 0.737549C17.671 0.737549 18.1417 0.937549 18.525 1.33755L19.925 2.76255C20.3083 3.14588 20.5 3.61255 20.5 4.16255C20.5 4.71255 20.3083 5.17922 19.925 5.56255L17.45 8.03755Z" fill="black"/>
</svg>
