<svg width="21" height="20" viewBox="0 0 21 20" fill="none" xmlns="http://www.w3.org/2000/svg">
<path d="M10.47 19.75C11.57 19.75 12.47 18.85 12.47 17.75H8.47C8.47 18.85 9.37 19.75 10.47 19.75ZM16.47 13.75V8.75C16.47 5.68 14.84 3.11 11.97 2.43V1.75C11.97 0.92 11.3 0.25 10.47 0.25C9.64 0.25 8.97 0.92 8.97 1.75V2.43C6.11 3.11 4.47 5.67 4.47 8.75V13.75L2.47 15.75V16.75H18.47V15.75L16.47 13.75ZM14.47 14.75H6.47V8.75C6.47 6.27 7.98 4.25 10.47 4.25C12.96 4.25 14.47 6.27 14.47 8.75V14.75ZM6.05 1.83L4.62 0.4C2.22 2.23 0.64 5.05 0.5 8.25H2.5C2.65 5.6 4.01 3.28 6.05 1.83ZM18.44 8.25H20.44C20.29 5.05 18.71 2.23 16.32 0.4L14.9 1.83C16.92 3.28 18.29 5.6 18.44 8.25Z" fill="black"/>
</svg>
